<svg width="320" height="320" xmlns="http://www.w3.org/2000/svg" transform="rotate(180)"><path  d="M291.4 0H320v30.27c-1.83 29.24-8.97 58.28-22.15 84.51-9.47 19.21-21.88 36.97-36.72 52.4-13.24 13.75-26.99 27-40.35 40.61-1.63 2.71-.65 6.18-.81 9.2.07 15.33 0 30.66.16 45.99-.19 2.22.48 5.01-1.43 6.67-16.26 16.19-32.47 32.44-48.7 48.67-11.74-11.76-23.52-23.5-35.26-35.28-11.41 3.71-22.93 7.26-34.15 11.51-7.85 6.44-16.24 12.41-25.71 16.28-14.25 6.1-29.78 8.53-45.19 9.17H0v-32.13c1.28-21.79 6.6-44.11 20.13-61.69 2.27-3.18 5.52-5.8 6.58-9.71 3.31-10.45 7.09-20.74 10.24-31.24-11.8-11.71-23.5-23.5-35.28-35.23 16.05-16.06 32.15-32.06 48.14-48.19.87-.78 1.75-1.85 3.06-1.8 11.06-.48 22.14.37 33.2-.11 8.61-.22 17.22.48 25.81-.09 12.81-12.83 25.65-25.64 38.46-38.47C187.46 24.12 238.99 2.23 291.4 0m-73.32 38.13c-18.75 8.76-36.1 20.55-51.08 34.83-15.73 15.72-31.48 31.41-47.15 47.18-18.31-.27-36.62-.02-54.93-.26-1.97.16-4.41-.53-5.94 1.07-9.66 9.7-19.38 19.33-29.01 29.06 10.01 10.03 20 20.07 30.06 30.04.06.05.18.17.24.22-.69 1.31-1.4 2.63-1.83 4.06-4.25 13.11-8.75 26.15-13.02 39.26-.86 1.42.52 2.42 1.41 3.35-8.51 6.77-14.88 16.05-19.27 25.95-6.26 14.55-7.52 30.63-7.65 46.28.26.22.78.67 1.03.89 15.63-.09 31.68-1.38 46.2-7.63 9.88-4.4 19.15-10.76 25.92-19.26 1.69 2.95 4.77.83 7.15.19 13.17-4.63 26.61-8.5 39.63-13.52l.12.12c9.96 10.08 20.01 20.07 30.04 30.07 9.99-9.94 19.94-19.92 29.9-29.89.15-19.97.23-39.96-.04-59.92 14.33-14.11 28.48-28.42 42.72-42.63 16.21-16.03 29.63-34.92 39.24-55.6 11.98-25.52 18.4-53.74 18.15-81.95-28.18-.28-56.37 6.17-81.89 18.09z"/><path fill="#e81224" d="M218.08 38.13c25.52-11.92 53.71-18.37 81.89-18.09.25 28.21-6.17 56.43-18.15 81.95-21.29-21.24-42.43-42.64-63.74-63.86z"/><path fill="#fff" d="M167 72.96c14.98-14.28 32.33-26.07 51.08-34.83 21.31 21.22 42.45 42.62 63.74 63.86-9.61 20.68-23.03 39.57-39.24 55.6-14.24 14.21-28.39 28.52-42.72 42.63-20.11 19.77-39.89 39.88-59.9 59.74l-.12-.12c-26.47-26.57-52.99-53.1-79.57-79.57-.06-.05-.18-.17-.24-.22 19.91-20.01 39.96-39.87 59.82-59.91 15.67-15.77 31.42-31.46 47.15-47.18m26.39 17.67c-8.83 1.95-16.58 8.12-20.49 16.27-6.3 12.5-2.31 29.05 9.1 37.2 12.01 9.43 31.02 7.38 40.74-4.4 9.93-10.97 9.68-29.25-.5-39.98-7.08-8.03-18.48-11.26-28.85-9.09m-40.95 69.98c-16.92 16.3-33.28 33.23-50.03 49.74-1.72 1.4-2.8 3.5-2.27 5.76.38 3.88 5.93 5.12 8.42 2.49 16.4-16.27 32.67-32.69 49.06-48.98 1.28-1.22 2.57-2.71 2.32-4.64.44-3.82-4.4-6.4-7.5-4.37z"/><path fill="#a6a6a6" d="M193.39 90.63c10.37-2.17 21.77 1.06 28.85 9.09 10.18 10.73 10.43 29.01.5 39.98-9.72 11.78-28.73 13.83-40.74 4.4-11.41-8.15-15.4-24.7-9.1-37.2 3.91-8.15 11.66-14.32 20.49-16.27m1.9 9.84c-10.49 2.18-17.6 13.85-14.82 24.19 1.89 8.78 10.44 15.75 19.51 15.28 10.67.6 20.52-9.22 19.96-19.89.45-7.79-4.67-15.1-11.57-18.35-4.06-1.92-8.74-1.92-13.08-1.23z"/><path fill="#ccc" d="M195.29 100.47c4.34-.69 9.02-.69 13.08 1.23 6.9 3.25 12.02 10.56 11.57 18.35.56 10.67-9.29 20.49-19.96 19.89-9.07.47-17.62-6.5-19.51-15.28-2.78-10.34 4.33-22.01 14.82-24.19z"/><path d="M58.98 120.95c1.53-1.6 3.97-.91 5.94-1.07 18.31.24 36.62-.01 54.93.26-19.86 20.04-39.91 39.9-59.82 59.91-10.06-9.97-20.05-20.01-30.06-30.04 9.63-9.73 19.35-19.36 29.01-29.06zm93.46 39.66c3.1-2.03 7.94.55 7.5 4.37.25 1.93-1.04 3.42-2.32 4.64-16.39 16.29-32.66 32.71-49.06 48.98-2.49 2.63-8.04 1.39-8.42-2.49-.53-2.26.55-4.36 2.27-5.76 16.75-16.51 33.11-33.44 50.03-49.74zm-12.48 99.35c20.01-19.86 39.79-39.97 59.9-59.74.27 19.96.19 39.95.04 59.92-9.96 9.97-19.91 19.95-29.9 29.89-10.03-10-20.08-19.99-30.04-30.07z" fill="#00bcf2"/><path fill="#4a5459" d="M60.27 180.27c26.58 26.47 53.1 53 79.57 79.57-13.02 5.02-26.46 8.89-39.63 13.52-2.38.64-5.46 2.76-7.15-.19-3.48-3.56-7.01-7.06-10.53-10.58l-25.14-25.14c-3.51-3.51-7.01-7.04-10.56-10.51-.89-.93-2.27-1.93-1.41-3.35 4.27-13.11 8.77-26.15 13.02-39.26.43-1.43 1.14-2.75 1.83-4.06z"/><path fill="#f7630c" d="M46.83 226.94c3.55 3.47 7.05 7 10.56 10.51-11.81 10.78-16.77 26.93-17.34 42.51 15.56-.61 31.75-5.52 42.48-17.37 3.52 3.52 7.05 7.02 10.53 10.58-6.77 8.5-16.04 14.86-25.92 19.26-14.52 6.25-30.57 7.54-46.2 7.63-.25-.22-.77-.67-1.03-.89.13-15.65 1.39-31.73 7.65-46.28 4.39-9.9 10.76-19.18 19.27-25.95z"/><path fill="#ffc83d" d="M40.05 279.96c.57-15.58 5.53-31.73 17.34-42.51l25.14 25.14c-10.73 11.85-26.92 16.76-42.48 17.37z"/></svg>